# xmcd CD database file
#
# Track frame offsets:
#	150
#	13041
#	30325
#	45521
#	74668
#	88596
#	106197
#	125773
#	143334
#	156419
#
# Disc length: 2351 seconds
#
# Revision: 0
# Processed by: cddbd v1.5.2PL0 Copyright (c) Steve Scherf et al.
# Submitted via: CDex 1.70beta2
#
DISCID=7d092d0a
DTITLE=Matti Järvinen - Matin levy
DYEAR=1976
DGENRE=
TTITLE0=Lähtö huomiseen
TTITLE1=Katselen kaunista iltaa
TTITLE2=Tuulee niin
TTITLE3=Laiska mies
TTITLE4=Tutkimusmatka
TTITLE5=Selvää sulle se on
TTITLE6=Nimeni mun piirretään
TTITLE7=Pieni sieni
TTITLE8=Outo päivä
TTITLE9=Sameassa vedessä
EXTD=YEAR: 1976
EXTT0=
EXTT1=
EXTT2=
EXTT3=
EXTT4=
EXTT5=
EXTT6=
EXTT7=
EXTT8=
EXTT9=
PLAYORDER=
